<?xml version="1.0" encoding="UTF-8" standalone="no"?>
<!-- Created with Inkscape (http://www.inkscape.org/) -->

<svg
   width="210mm"
   height="297mm"
   viewBox="0 0 210 297"
   version="1.1"
   id="svg1"
   xml:space="preserve"
   inkscape:version="1.3.2 (091e20e, 2023-11-25, custom)"
   sodipodi:docname="Logo.svg"
   inkscape:export-filename="Logo.png"
   inkscape:export-xdpi="96"
   inkscape:export-ydpi="96"
   xmlns:inkscape="http://www.inkscape.org/namespaces/inkscape"
   xmlns:sodipodi="http://sodipodi.sourceforge.net/DTD/sodipodi-0.dtd"
   xmlns:xlink="http://www.w3.org/1999/xlink"
   xmlns="http://www.w3.org/2000/svg"
   xmlns:svg="http://www.w3.org/2000/svg"><sodipodi:namedview
     id="namedview1"
     pagecolor="#505050"
     bordercolor="#eeeeee"
     borderopacity="1"
     inkscape:showpageshadow="0"
     inkscape:pageopacity="0"
     inkscape:pagecheckerboard="0"
     inkscape:deskcolor="#505050"
     inkscape:document-units="mm"
     inkscape:zoom="1"
     inkscape:cx="238"
     inkscape:cy="553.5"
     inkscape:window-width="1920"
     inkscape:window-height="1017"
     inkscape:window-x="-8"
     inkscape:window-y="-8"
     inkscape:window-maximized="1"
     inkscape:current-layer="layer1"
     showguides="true" /><defs
     id="defs1"><inkscape:path-effect
       effect="bspline"
       id="path-effect31"
       is_visible="true"
       lpeversion="1.3"
       weight="33.333333"
       steps="2"
       helper_size="0"
       apply_no_weight="true"
       apply_with_weight="true"
       only_selected="false"
       uniform="false" /><inkscape:path-effect
       effect="bspline"
       id="path-effect29"
       is_visible="true"
       lpeversion="1.3"
       weight="33.333333"
       steps="2"
       helper_size="0"
       apply_no_weight="true"
       apply_with_weight="true"
       only_selected="false"
       uniform="false" /><inkscape:path-effect
       effect="bspline"
       id="path-effect27"
       is_visible="true"
       lpeversion="1.3"
       weight="33.333333"
       steps="2"
       helper_size="0"
       apply_no_weight="true"
       apply_with_weight="true"
       only_selected="false"
       uniform="false" /><inkscape:path-effect
       effect="bspline"
       id="path-effect25"
       is_visible="true"
       lpeversion="1.3"
       weight="33.333333"
       steps="2"
       helper_size="0"
       apply_no_weight="true"
       apply_with_weight="true"
       only_selected="false"
       uniform="false" /><inkscape:path-effect
       effect="bspline"
       id="path-effect20"
       is_visible="true"
       lpeversion="1.3"
       weight="33.333333"
       steps="2"
       helper_size="0"
       apply_no_weight="true"
       apply_with_weight="true"
       only_selected="false"
       uniform="false" /><inkscape:perspective
       sodipodi:type="inkscape:persp3d"
       inkscape:vp_x="0 : 148.5 : 1"
       inkscape:vp_y="0 : 1000 : 0"
       inkscape:vp_z="210 : 148.5 : 1"
       inkscape:persp3d-origin="105 : 99 : 1"
       id="perspective12" /><inkscape:path-effect
       effect="bspline"
       id="path-effect12"
       is_visible="true"
       lpeversion="1.3"
       weight="33.333333"
       steps="2"
       helper_size="0"
       apply_no_weight="true"
       apply_with_weight="true"
       only_selected="false"
       uniform="false" /><inkscape:path-effect
       effect="bspline"
       id="path-effect10"
       is_visible="true"
       lpeversion="1.3"
       weight="33.333333"
       steps="2"
       helper_size="0"
       apply_no_weight="true"
       apply_with_weight="true"
       only_selected="false"
       uniform="false" /><inkscape:path-effect
       effect="bspline"
       id="path-effect8"
       is_visible="true"
       lpeversion="1.3"
       weight="33.333333"
       steps="2"
       helper_size="0"
       apply_no_weight="true"
       apply_with_weight="true"
       only_selected="false"
       uniform="false" /><inkscape:path-effect
       effect="bspline"
       id="path-effect6"
       is_visible="true"
       lpeversion="1.3"
       weight="33.333333"
       steps="2"
       helper_size="0"
       apply_no_weight="true"
       apply_with_weight="true"
       only_selected="false"
       uniform="false" /><inkscape:path-effect
       effect="bspline"
       id="path-effect4"
       is_visible="true"
       lpeversion="1.3"
       weight="33.333333"
       steps="2"
       helper_size="0"
       apply_no_weight="true"
       apply_with_weight="true"
       only_selected="false"
       uniform="false" /></defs><g
     inkscape:label="Layer 1"
     inkscape:groupmode="layer"
     id="layer1"><path
       id="path37"
       style="display:inline;opacity:1;fill:#0000ff;fill-opacity:1;stroke-width:0.227167;paint-order:stroke markers fill"
       inkscape:label="hearth_left"
       d="m 52.10496,126.56349 c 3.27711,4.33937 5.74032,7.60427 7.69094,10.19 -2.09756,-0.65176 -4.44795,-1.09025 -7.89718,-1.44292 -3.47107,-0.35488 -8.30253,-0.40884 -12.71028,1.07457 -4.40776,1.4834 -8.39162,4.50399 -11.32996,8.65891 -2.93833,4.15492 -4.83115,9.44427 -4.89111,14.31323 -0.0599,4.86895 1.71321,9.3174 5.07858,14.28785 3.36538,4.97045 8.32304,10.46273 15.76707,13.66451 7.44402,3.20179 17.37365,4.11276 27.69086,4.98158 10.70787,0.83165 21.40606,1.81969 32.12178,2.54904 l 8.70904,11.54229 c -14.74669,-1.13887 -29.51869,-2.256 -43.73139,-3.45287 -14.24066,-1.19922 -27.94682,-2.4568 -38.22166,-6.87617 C 20.1068,191.63414 13.263698,184.05322 8.618538,177.1926 c -4.64516,-6.86063 -7.09211,-13.00101 -7.00935,-19.72155 0.0828,-6.72053 2.69526,-14.02094 6.75099,-19.7559 4.05573,-5.73496 9.55461,-9.90428 15.638552,-11.95179 6.08394,-2.04752 12.75262,-1.97337 17.5437,-1.48351 4.76099,0.48678 7.66728,1.38397 10.56255,2.28361 z m 0,0 c 3.27656,4.33979 5.7424,7.60717 7.68847,10.19187 -0.0513,-2.19589 0.17198,-4.57639 0.77923,-7.99 0.6111,-3.43525 1.88485,-8.09609 4.5207,-11.92768 2.63584,-3.8316 6.63358,-6.8338 11.43525,-8.51937 4.80167,-1.68557 10.40737,-2.05449 15.10592,-0.77623 4.69855,1.27826 8.48977,4.20391 12.3461,8.80389 3.85633,4.6 7.77757,10.87432 8.81404,18.91116 1.03647,8.03683 -0.81195,17.83534 -2.80725,27.99499 -2.13822,10.52511 -4.12341,21.08383 -6.36216,31.58844 l 8.7098,11.54172 c 2.95095,-14.49324 5.92973,-29.00485 8.6784,-43.0005 2.75406,-14.02318 5.30535,-27.54839 3.87473,-38.64149 -1.43062,-11.09309 -6.84304,-19.75356 -12.16586,-26.102841 -5.32282,-6.34927 -10.55619,-10.38707 -17.04151,-12.151431 -6.48533,-1.76436 -14.22237,-1.25515 -20.85002,1.07141 -6.62766,2.326561 -12.14572,6.470451 -15.78393,11.759131 -3.63822,5.288691 -5.39662,11.721781 -6.24011,16.463391 -0.8382,4.71184 -0.77283,7.75276 -0.70211,10.78377 z" /><path
       id="path38"
       style="display:inline;opacity:1;fill:#ff0707;fill-opacity:1;stroke-width:0.227167;paint-order:stroke markers fill"
       inkscape:label="hearth_right"
       d="m 156.29819,138.71492 c -3.27711,4.33937 -5.74032,7.60427 -7.69094,10.19 2.09756,-0.65176 4.44795,-1.09025 7.89718,-1.44292 3.47107,-0.35488 8.30253,-0.40884 12.71028,1.07457 4.40776,1.4834 8.39162,4.50399 11.32996,8.65891 2.93833,4.15492 4.83115,9.44427 4.89111,14.31323 0.0599,4.86895 -1.71321,9.3174 -5.07858,14.28785 -3.36538,4.97045 -8.32304,10.46273 -15.76707,13.66451 -7.44402,3.20179 -17.37365,4.11276 -27.69086,4.98158 -10.70787,0.83165 -21.40606,1.81969 -32.12178,2.54904 l -8.709045,11.54229 c 14.746695,-1.13887 29.518695,-2.256 43.731395,-3.45287 14.24066,-1.19922 27.94682,-2.4568 38.22166,-6.87617 10.27485,-4.41937 17.11795,-12.00029 21.76311,-18.86091 4.64516,-6.86063 7.09211,-13.00101 7.00935,-19.72155 -0.0828,-6.72053 -2.69526,-14.02094 -6.75099,-19.7559 -4.05573,-5.73496 -9.55461,-9.90428 -15.63855,-11.95179 -6.08394,-2.04752 -12.75262,-1.97337 -17.5437,-1.48351 -4.76099,0.48678 -7.66728,1.38397 -10.56255,2.28361 z m 0,0 c -3.27656,4.33979 -5.7424,7.60717 -7.68847,10.19187 0.0513,-2.19589 -0.17198,-4.57639 -0.77923,-7.99 -0.6111,-3.43525 -1.88485,-8.09609 -4.5207,-11.92768 -2.63584,-3.8316 -6.63358,-6.8338 -11.43525,-8.51937 -4.80167,-1.68557 -10.40737,-2.05449 -15.10592,-0.77623 -4.69855,1.27826 -8.48977,4.20391 -12.3461,8.80389 -3.85633,4.6 -7.777576,10.87432 -8.814039,18.91116 -1.03647,8.03683 0.811949,17.83534 2.807242,27.99499 2.138227,10.52511 4.123417,21.08383 6.362167,31.58844 l -8.709806,11.54172 c -2.950943,-14.49324 -5.92973,-29.00485 -8.678392,-43.0005 -2.754065,-14.02318 -5.305353,-27.54839 -3.874732,-38.64149 1.43062,-11.09309 6.84304,-19.75356 12.16586,-26.10284 5.32282,-6.34927 10.55619,-10.38707 17.04151,-12.151431 6.48533,-1.76436 14.22237,-1.25515 20.85002,1.07141 6.62766,2.326561 12.14572,6.470451 15.78393,11.759131 3.63822,5.28869 5.39662,11.72178 6.24011,16.46339 0.8382,4.71184 0.77283,7.75276 0.70211,10.78377 z" /><path
       style="display:none;opacity:1;fill:#0000ff;fill-opacity:1;stroke-width:0.227167;paint-order:stroke markers fill"
       d="m 39.18844,136.38514 c -4.40776,1.4834 -8.39162,4.50399 -11.32996,8.65891 -2.93833,4.15492 -4.83115,9.44427 -4.89111,14.31323 -0.0599,4.86895 1.71321,9.3174 5.07858,14.28785 3.36538,4.97045 8.32304,10.46273 15.76707,13.66451 7.44402,3.20179 17.37365,4.11276 27.69086,4.98158 10.70787,0.83165 21.40606,1.81969 32.12178,2.54904 l 8.70904,11.54229 c -14.74669,-1.13887 -29.51869,-2.256 -43.73139,-3.45287 -14.24066,-1.19922 -27.94682,-2.4568 -38.22166,-6.87617 C 20.1068,191.63414 13.263698,184.05322 8.618538,177.1926 c -4.64516,-6.86063 -7.09211,-13.00101 -7.00935,-19.72155 0.0828,-6.72053 2.69526,-14.02094 6.75099,-19.7559 4.05573,-5.73496 9.55461,-9.90428 15.638552,-11.95179 6.08394,-2.04752 12.75262,-1.97337 17.5437,-1.48351 z m 64.43682,58.45542 8.7098,11.54172 c 3.65244,-26.02253 14.97754,-55.35728 12.55313,-81.64199 z"
       id="path44"
       sodipodi:nodetypes="cscsscccssscsscccccc" /><g
       id="g22"
       inkscape:label="text"
       transform="translate(-2.9387563,-50.721254)"><g
         id="g21"
         style="display:inline"><text
           xml:space="preserve"
           style="font-style:normal;font-variant:normal;font-weight:normal;font-stretch:normal;font-size:25.4px;line-height:0;font-family:'Goudy Old Style';-inkscape-font-specification:'Goudy Old Style';letter-spacing:1.85208px;opacity:1;fill:#000000;fill-opacity:1;stroke:#ffffff;stroke-width:0.265;stroke-linecap:butt;stroke-dasharray:none;stroke-opacity:1;paint-order:fill markers stroke"
           id="text18"><textPath
             xlink:href="#path20"
             startOffset="50%"
             id="textPath20"><tspan
               style="font-style:normal;font-variant:normal;font-weight:normal;font-stretch:normal;font-size:25.4px;line-height:0;font-family:'Goudy Old Style';-inkscape-font-specification:'Goudy Old Style';text-align:center;letter-spacing:1.85208px;text-anchor:middle;fill:#000000;fill-opacity:1;stroke:#ffffff;stroke-width:0.265;stroke-linecap:butt;stroke-dasharray:none;stroke-opacity:1;paint-order:fill markers stroke"
               id="tspan19"
               rotate="0 0 0 0 0 0 0 0"
               dx="0">ROKZILE</tspan></textPath></text></g><path
         style="opacity:1;fill:none;fill-opacity:1;stroke:#ffffff;stroke-width:0.294343;stroke-linecap:butt;stroke-dasharray:none;stroke-opacity:0;paint-order:fill markers stroke"
         d="m 52.208852,239.89101 c 36.934375,-43.60619 81.542198,-28.48116 108.716328,0.88975"
         id="path20"
         sodipodi:nodetypes="cc" /></g></g></svg>
